<svg xmlns="http://www.w3.org/2000/svg" width="97.264" height="53.2" viewBox="0 0 97.264 53.2"><defs><style>.a{fill:#fff;}</style></defs><g transform="translate(0 0)"><path class="a" d="M97.264,147.7c0,16.826-81.113,35.4-87.254,35.4-3.443,0-7.35-.794-7.35-3.968,0-1.061,1.224-2.594,3.372-4.442h0L.335,164.574a2.6,2.6,0,0,1,1.3-3.689l.979-.392a6.5,6.5,0,0,1,5.458.289l10.337,5.472c4.025-2.387,8.59-4.886,13.4-7.347L11.666,145.839a2.6,2.6,0,0,1,.032-4.383l1.648-1.035a11.7,11.7,0,0,1,9.208-1.406l33.51,8.839c10.448-4.147,19.895-6.978,25.486-6.978,1.493,0,2.989.04,4.432.143l-10.12,4.568-.242,3.4,15.621-7.181C94.985,142.7,97.264,144.37,97.264,147.7ZM56.5,176.747l12.5,14.2a2.6,2.6,0,0,0,3.048.64l1.674-.778a7.8,7.8,0,0,0,4.46-7.98l-1.565-13.379a1.3,1.3,0,0,0-1.723-1.075l-17.849,6.288A1.3,1.3,0,0,0,56.5,176.747Z" transform="translate(0 -138.628)"/></g></svg>