<svg xmlns="http://www.w3.org/2000/svg" width="64" height="62.831" viewBox="0 0 64 62.831"><defs><style>.a{fill:#fff;}</style></defs><g transform="translate(0 -5.588)"><path class="a" d="M26.974,40.148a3.286,3.286,0,1,1-3.286-3.286A3.286,3.286,0,0,1,26.974,40.148Zm13.338-3.286A3.286,3.286,0,1,0,43.6,40.149,3.286,3.286,0,0,0,40.312,36.862ZM64,38.317v6.245a5.677,5.677,0,0,1-5.677,5.677H54.2C50.121,61.573,39.7,68.419,32,68.419S13.879,61.573,9.8,50.239H5.677A5.677,5.677,0,0,1,0,44.562V38.317a5.676,5.676,0,0,1,2.976-4.994c.06-8.866,2.644-15.791,7.692-20.578C15.675,8,22.852,5.588,32,5.588S48.325,8,53.332,12.744c5.048,4.787,7.632,11.712,7.692,20.578A5.676,5.676,0,0,1,64,38.317ZM51.984,40.169c0-1.461-.075-2.833-.185-4.163-2.52-2.305-7.094-4.054-12.866-4.7a8.371,8.371,0,0,1,1.81,3.449c-3.536-2.786-10.476-2.123-15.726-8.356-.3-.348-.561-.681-.786-.985l-.008-.01h0c-.934-1.263-1.252-2.014-1.27-1.183-.154,7.165-5.232,12.75-10.871,13.538-.036.788-.065,1.584-.065,2.414a25.7,25.7,0,0,0,1.335,8.276c3.168,3.821,8.4,4.9,13.029,5.186a5.92,5.92,0,0,1,5.034-2.322c3.045,0,5.513,1.752,5.513,3.914s-2.468,3.913-5.513,3.913a5.794,5.794,0,0,1-5.137-2.5A27.146,27.146,0,0,1,16.313,54.4C20.772,60.97,27.684,64.445,32,64.445,38.783,64.445,51.984,55.877,51.984,40.169Zm5.622-7.53C57.244,17.168,48.413,8.994,32,8.994S6.756,17.168,6.394,32.64H8.579a27.262,27.262,0,0,1,5.049-12.8C17.712,14.584,23.893,11.919,32,11.919s14.288,2.664,18.372,7.919a27.264,27.264,0,0,1,5.049,12.8h2.184Z"/></g></svg>