<svg xmlns="http://www.w3.org/2000/svg" width="64" height="59.719" viewBox="0 0 64 59.719"><defs><style>.a{fill:#fff;}</style></defs><path class="a" d="M62.672,30.56l-7-8.778a3.483,3.483,0,0,0-2.724-1.312H16.79a3.483,3.483,0,0,0-2.724,1.312l-7,8.778a7.172,7.172,0,0,0-1.329,3.917v6.429a4.512,4.512,0,0,1,2.342-1.866,4.882,4.882,0,0,1,3.639-4.348A4.984,4.984,0,0,1,13,34.521,4.883,4.883,0,0,1,17.068,36.7a4.641,4.641,0,0,1,.8-.07,4.536,4.536,0,0,1,2.268.613l3.875-1.008a5.886,5.886,0,0,1,7.183,4.219l7.595,29.191a5.891,5.891,0,0,1-4.219,7.185l-3.39.882H59.646A4.354,4.354,0,0,0,64,73.361v-39A7.12,7.12,0,0,0,62.672,30.56ZM9.356,30.486l2.317-2.907H27.482l1.56-2.565H13.718l1.711-2.146a1.733,1.733,0,0,1,1.362-.656H52.951a1.732,1.732,0,0,1,1.362.656l1.711,2.146h-15.6l.871,2.565h16.77l2.317,2.907Zm.707,10.725-.977.254A1.948,1.948,0,0,0,7.691,43.84l.01.038a1.948,1.948,0,0,0,2.375,1.394l8.288-2.156a1.947,1.947,0,0,0,1.394-2.375l-.01-.038a1.948,1.948,0,0,0-2.375-1.394l-.977.254a.977.977,0,0,1-1.192-.7l-.008-.032a2.269,2.269,0,0,0-2.767-1.624l-.051.013a2.269,2.269,0,0,0-1.624,2.767l.008.032A.977.977,0,0,1,10.063,41.211Zm2.671-2.727a.984.984,0,1,1-.7,1.2A.984.984,0,0,1,12.734,38.483ZM24.949,68.505a.656.656,0,0,1-.469.8L12.422,72.441a.656.656,0,0,1-.8-.47l-.165-.634a.656.656,0,0,1,.47-.8L23.984,67.4a.656.656,0,0,1,.8.469Zm1.471-12.578.165.635a.656.656,0,0,1-.47.8l-16.5,4.292a.656.656,0,0,1-.8-.469l-.165-.635a.656.656,0,0,1,.47-.8l16.5-4.292A.655.655,0,0,1,26.419,55.927Zm-1.79-4.277-16.5,4.292a.656.656,0,0,1-.8-.47l-.165-.635a.656.656,0,0,1,.47-.8l16.5-4.292a.656.656,0,0,1,.8.469l.165.635A.656.656,0,0,1,24.629,51.65Zm-.366,11.613L10.936,66.73a.656.656,0,0,1-.8-.47l-.165-.635a.656.656,0,0,1,.47-.8L23.767,61.36a.656.656,0,0,1,.8.469l.165.635A.655.655,0,0,1,24.262,63.263Zm12,7.043L28.664,41.114a3.279,3.279,0,0,0-4-2.348L20.8,39.774a3.287,3.287,0,0,1-2.1,4.612L10.528,46.51a3.342,3.342,0,0,1-4.021-2.054,3.378,3.378,0,0,1-.179-.919L2.454,44.545a3.279,3.279,0,0,0-2.348,4L7.7,77.735a3.279,3.279,0,0,0,4,2.348L33.91,74.3A3.278,3.278,0,0,0,36.258,70.306Zm-25.384,6.6L4.27,51.526l22.211-5.778,6.6,25.384Z" transform="translate(-0.001 -20.47)"/></svg>