<svg xmlns="http://www.w3.org/2000/svg" width="55.818" height="68.096" viewBox="0 0 55.818 68.096"><defs><style>.a{fill:#fff;}</style></defs><path class="a" d="M33.75,20.864A12.384,12.384,0,0,0,43.6,16H23.9a12.384,12.384,0,0,0,9.85,4.864Z" transform="translate(-7.115 -1.408)"/><circle class="a" cx="1.216" cy="1.216" r="1.216" transform="translate(25.418 4.864)"/><path class="a" d="M28.569,34,20.3,37.283l5.594,4.864,3.77-3.77a4.651,4.651,0,0,1,1.581-3.04l-.973-.365c-.486-.365-1.094-.608-1.7-.973Z" transform="translate(-7.893 2.48)"/><path class="a" d="M35.694,34.851l-1.094.365a4.651,4.651,0,0,1,1.581,3.04l3.77,3.77,5.594-4.864L37.4,34c-.608.365-1.216.608-1.7.851Z" transform="translate(-4.804 2.48)"/><circle class="a" cx="2.432" cy="2.432" r="2.432" transform="translate(24.202 38.912)"/><path class="a" d="M30,41.4V56.114l2.432,2.432,2.432-2.432V41.4A4.418,4.418,0,0,1,30,41.4Z" transform="translate(-5.798 4.078)"/><path class="a" d="M48,45h3.648V63.24H48Z" transform="translate(-1.91 4.856)"/><path class="a" d="M49.824,35A1.87,1.87,0,0,0,48,36.824v7.9h3.648v-7.9A1.87,1.87,0,0,0,49.824,35Z" transform="translate(-1.91 2.696)"/><path class="a" d="M45.121,44.7,41.6,41.048V58.072l-4.864,4.864-4.864-4.864V41.048l-3.526,3.526L20.072,37.4l-3.04,1.216A10.641,10.641,0,0,0,10.1,48.83V64.882H21.045V52.722h2.432v12.16H48.04a4.32,4.32,0,0,1-.243-1.216V47.858a3.583,3.583,0,0,1,3.648-3.648h2.432V37.643l-.243-.122Z" transform="translate(-10.097 3.214)"/><path class="a" d="M23.046,16.16H45.663L47.609,11.3a.731.731,0,0,0,.122-.486V7.283a1.309,1.309,0,0,0-.973-1.216L34.6,4h-.365L22.073,6.067A1.184,1.184,0,0,0,21.1,7.283V10.81a.731.731,0,0,0,.122.486ZM34.354,6.432A3.583,3.583,0,0,1,38,10.08a3.648,3.648,0,1,1-7.3,0A3.583,3.583,0,0,1,34.354,6.432Z" transform="translate(-7.72 -4)"/><path class="a" d="M55.432,45H53V63.24h2.432a1.149,1.149,0,0,0,1.216-1.216V46.216A1.149,1.149,0,0,0,55.432,45Z" transform="translate(-0.83 4.856)"/><path class="a" d="M21.094,22.742l2.554,1.338v.73a12.158,12.158,0,0,0,7.661,11.309l1.094.365a5.777,5.777,0,0,0,4.5,0L38,36.118A12.158,12.158,0,0,0,45.658,24.81v-.73l2.675-1.338a1.753,1.753,0,0,0,.973-1.581V19.824A1.87,1.87,0,0,0,47.482,18H45.536a14.8,14.8,0,0,1-20.915.973A7.337,7.337,0,0,1,23.648,18H21.824A1.87,1.87,0,0,0,20,19.824v1.338a1.731,1.731,0,0,0,1.094,1.581Z" transform="translate(-7.958 -0.976)"/><path class="a" d="M43,46.216V62.024a1.149,1.149,0,0,0,1.216,1.216h2.432V45H44.216A1.149,1.149,0,0,0,43,46.216Z" transform="translate(-2.99 4.856)"/></svg>