<svg xmlns="http://www.w3.org/2000/svg" width="68.096" height="47.859" viewBox="0 0 68.096 47.859"><defs><style>.a{fill:#fff;}</style></defs><path class="a" d="M2.389,122.827V93.854A2.915,2.915,0,0,1,5.3,90.939H34.262a2.915,2.915,0,0,1,2.915,2.915v28.973a.972.972,0,0,1-.972.972H3.361A.972.972,0,0,1,2.389,122.827Zm23.384,9.925a6.046,6.046,0,1,1-6.046-6.046A6.046,6.046,0,0,1,25.773,132.752Zm-3.023,0a3.023,3.023,0,1,0-3.023,3.023A3.023,3.023,0,0,0,22.75,132.752Zm-8.23-6.046H.972a.972.972,0,0,0-.972.972v2.948a.972.972,0,0,0,.972.972h10.86A7.975,7.975,0,0,1,14.52,126.706Zm42.887,6.046a6.046,6.046,0,1,1-6.046-6.046A6.046,6.046,0,0,1,57.407,132.752Zm-3.023,0a3.023,3.023,0,1,0-3.023,3.023A3.023,3.023,0,0,0,54.384,132.752ZM68.1,127.677v2.948a.972.972,0,0,1-.972.972H59.257a7.979,7.979,0,0,0-15.792,0H27.623a7.976,7.976,0,0,0-2.689-4.891H39.955V98.912A1.943,1.943,0,0,1,41.9,96.968h9.173a7.773,7.773,0,0,1,6.442,3.424l5.914,8.759a7.774,7.774,0,0,1,1.331,4.35v13.2h2.365A.972.972,0,0,1,68.1,127.677Zm-9.857-18.3-4.729-6.72a.972.972,0,0,0-.795-.412H45.338a.972.972,0,0,0-.972.972v6.72a.972.972,0,0,0,.972.972H57.444A.972.972,0,0,0,58.239,109.376Z" transform="translate(0 -90.939)"/></svg>