<svg xmlns="http://www.w3.org/2000/svg" width="68.096" height="47.363" viewBox="0 0 68.096 47.363"><defs><style>.a{fill:#fff;}</style></defs><circle class="a" cx="4.244" cy="4.244" r="4.244" transform="translate(27.043 38.875)"/><circle class="a" cx="4.244" cy="4.244" r="4.244" transform="translate(7.062 38.875)"/><g transform="translate(47.261 0)"><path class="a" d="M359.066,118H341.93a1.849,1.849,0,0,1-1.849-1.849V76.441a1.849,1.849,0,0,1,3.7,0V114.3h15.287a1.849,1.849,0,0,1,0,3.7Z" transform="translate(-340.081 -74.592)"/></g><path class="a" d="M42.139,120.141c-3.825-6.252-13.885-23.006-13.986-23.173a2.867,2.867,0,0,0-2.449-1.39H9.41a2.856,2.856,0,0,0-2.853,2.853v15.7H1.971A1.974,1.974,0,0,0,0,116.1v18.19a1.973,1.973,0,0,0,1.971,1.971H4.036a.484.484,0,0,0,.484-.484,6.786,6.786,0,0,1,13.572,0,.484.484,0,0,0,.484.484h5.441a.484.484,0,0,0,.484-.484,6.786,6.786,0,1,1,13.572,0,.484.484,0,0,0,.484.484h1.477a2.562,2.562,0,0,0,2.559-2.559V121.43A2.485,2.485,0,0,0,42.139,120.141Zm-16.19-.031v-2.652a.825.825,0,0,0-.825-.825H20.448v-7.809a.825.825,0,0,0-.825-.825H17.01a.825.825,0,0,0-.825.825V120.11H12.263V101.284H24.085L35.334,120.11H25.949Z" transform="translate(0 -92.662)"/><g transform="translate(53.728 4.465)"><path class="a" d="M400.979,249.535a.88.88,0,0,1-.88.88H387.491a.88.88,0,0,1-.88-.88V236.927a.88.88,0,0,1,.88-.88H400.1a.88.88,0,0,1,.88.88Z" transform="translate(-386.611 -218.075)"/><path class="a" d="M400.979,120.212a.88.88,0,0,1-.88.88H387.491a.88.88,0,0,1-.88-.88V107.6a.88.88,0,0,1,.88-.88H400.1a.88.88,0,0,1,.88.88Z" transform="translate(-386.611 -106.724)"/></g></svg>