<svg xmlns="http://www.w3.org/2000/svg" width="169.271" height="43.081" viewBox="0 0 169.271 43.081"><defs><style>.a{fill:#3e243e;}</style></defs><g transform="translate(0 -17.54)"><path class="a" d="M54.51,35.46H44.9c0-1.49,0-3,.05-4.54s0-3.05,0-4.53V18.02h1.94V33.66h7.62Z"/><path class="a" d="M73.53,26.76a11.24,11.24,0,0,1-.65,3.88,8.87,8.87,0,0,1-1.69,2.92,7.69,7.69,0,0,1-2.46,1.86,6.88,6.88,0,0,1-7.85-1.63,8.79,8.79,0,0,1-1.83-3,11.14,11.14,0,0,1-.7-4.07,11.72,11.72,0,0,1,.55-3.66,9.06,9.06,0,0,1,1.65-3A7.11,7.11,0,0,1,63,18.21a6.72,6.72,0,0,1,3-.67,6.85,6.85,0,0,1,2.93.63,7,7,0,0,1,2.33,1.75A9,9,0,0,1,72.94,23a11.85,11.85,0,0,1,.59,3.76Zm-2,.21A11.12,11.12,0,0,0,71,23.64a6.87,6.87,0,0,0-1.56-2.75,5.11,5.11,0,0,0-1.58-1.18,4.81,4.81,0,0,0-3.91,0A5,5,0,0,0,62.33,21a7,7,0,0,0-1.46,2.58,10.38,10.38,0,0,0,0,6.58,6.93,6.93,0,0,0,1.51,2.51A5.09,5.09,0,0,0,64,33.8a4.5,4.5,0,0,0,2,.44,4.59,4.59,0,0,0,1.95-.43,5.2,5.2,0,0,0,1.65-1.22A7.08,7.08,0,0,0,71,30.2a8.8,8.8,0,0,0,.54-3.2Z"/><path class="a" d="M91.18,26.51v9.03l-.7.06H89.32a16.7,16.7,0,0,1-4.95-.6,8.53,8.53,0,0,1-3.71-2.32,7.53,7.53,0,0,1-1.56-2.53,9.22,9.22,0,0,1-.6-3.44,8.08,8.08,0,0,1,1.13-4.24,8.61,8.61,0,0,1,3.12-3,10.83,10.83,0,0,1,3.06-1.18,15.53,15.53,0,0,1,3.58-.4h1l.14,1.88h-.91a14.56,14.56,0,0,0-3.28.34,9,9,0,0,0-2.61,1,6.949,6.949,0,0,0-2.34,9.28,6.54,6.54,0,0,0,2.32,2.24,9.36,9.36,0,0,0,2.68,1,14,14,0,0,0,2.92.29c0-.14,0-.81,0-2V26.58Z"/><path class="a" d="M99.86,35.49H97.93V18.03h1.93V32.51C99.84,34,99.86,35,99.86,35.49Z"/><path class="a" d="M115,30.57a4.74,4.74,0,0,1-.57,2.36,4.6,4.6,0,0,1-1.53,1.63,6.71,6.71,0,0,1-2,.87,9.91,9.91,0,0,1-2.52.29h-1.56l-.93-.06-.09-1.88.91.1c.5,0,1.09.07,1.77.07a8.58,8.58,0,0,0,1.61-.19,5,5,0,0,0,1.51-.47,3,3,0,0,0,1.06-.91A2.32,2.32,0,0,0,113,31a2.78,2.78,0,0,0-.37-1.48,4,4,0,0,0-1.23-1.16,14.189,14.189,0,0,0-1.4-.86,13.74,13.74,0,0,1-1.58-.94,5,5,0,0,1-1.7-1.76,4.48,4.48,0,0,1-.51-2.14,4.4,4.4,0,0,1,.46-2.08,5.07,5.07,0,0,1,1.2-1.51,5,5,0,0,1,1.84-.93,8.62,8.62,0,0,1,2.41-.32,14.246,14.246,0,0,1,1.47.05l.86.06.16,1.89-.86-.09a16.121,16.121,0,0,0-1.85-.08,5.84,5.84,0,0,0-1.35.16,4,4,0,0,0-1.22.5,2.49,2.49,0,0,0-.8.84,2.33,2.33,0,0,0-.33,1.25,2.45,2.45,0,0,0,.35,1.24,4,4,0,0,0,1.29,1.21,13,13,0,0,0,1.27.75c.53.29,1.05.59,1.55.93a5.5,5.5,0,0,1,1.77,1.76,4.45,4.45,0,0,1,.57,2.28Z"/><path class="a" d="M131.87,19.86h-5.76V35.52h-1.93V19.88h-5.71v-1.8h13.42Z"/><path class="a" d="M138.47,35.49h-1.93V23.03c0-1.61,0-3.28-.05-5h1.93V32.51C138.45,34,138.47,35,138.47,35.49Z"/><path class="a" d="M156.15,33.88q0,.12-.06.66c0,.36-.07.76-.1,1.18h-.41a14.86,14.86,0,0,1-5.09-.8,9.07,9.07,0,0,1-3.65-2.33,7.76,7.76,0,0,1-1.58-2.53,9.051,9.051,0,0,1-.58-3.37,8.1,8.1,0,0,1,.57-3.09,8.841,8.841,0,0,1,1.5-2.45,9.26,9.26,0,0,1,3.62-2.4,13.33,13.33,0,0,1,4.87-.89h.53v.75c0,.34.05.72.08,1.12h-.4a13.53,13.53,0,0,0-3,.36,8.53,8.53,0,0,0-2.71,1.07,6.52,6.52,0,0,0-3.08,5.57,7.08,7.08,0,0,0,.72,3.21,6.06,6.06,0,0,0,2.26,2.42,9,9,0,0,0,2.84,1.17,13.28,13.28,0,0,0,3.11.37h.22Z"/><path class="a" d="M169.27,30.57a4.74,4.74,0,0,1-.57,2.36,4.6,4.6,0,0,1-1.53,1.63,6.6,6.6,0,0,1-2,.87,9.8,9.8,0,0,1-2.52.29H161.1l-.94-.06-.09-1.88.91.1c.5,0,1.09.07,1.77.07a8.58,8.58,0,0,0,1.61-.19,4.9,4.9,0,0,0,1.51-.47,2.9,2.9,0,0,0,1.06-.91,2.32,2.32,0,0,0,.37-1.36,2.78,2.78,0,0,0-.37-1.48,3.8,3.8,0,0,0-1.22-1.16c-.37-.25-.85-.52-1.43-.83a12.21,12.21,0,0,1-1.58-.94A5,5,0,0,1,161,24.8a4.48,4.48,0,0,1-.51-2.14,4.4,4.4,0,0,1,.46-2.08,4.73,4.73,0,0,1,3-2.44,8.68,8.68,0,0,1,2.41-.32,14.539,14.539,0,0,1,1.48.05l.85.06.16,1.89-.85-.09a16.23,16.23,0,0,0-1.85-.08,5.93,5.93,0,0,0-1.36.16,4.06,4.06,0,0,0-1.22.5,2.59,2.59,0,0,0-.8.84,2.33,2.33,0,0,0-.33,1.25,2.45,2.45,0,0,0,.35,1.24,4,4,0,0,0,1.29,1.21,14.349,14.349,0,0,0,1.27.75c.53.29,1,.59,1.56.93a5.47,5.47,0,0,1,1.76,1.76,4.36,4.36,0,0,1,.6,2.28Z"/><path class="a" d="M58.46,60.23H56.53V52.09H47.07v8.14H45.18V42.76h1.94v7.53h9.51V42.76h1.93V57.4C58.56,58.76,58.45,59.71,58.46,60.23Z"/><path class="a" d="M78.51,42.76V54.11a8.06,8.06,0,0,1-.4,2.67,5.46,5.46,0,0,1-1.23,2,5.63,5.63,0,0,1-2,1.36,8.2,8.2,0,0,1-5.53,0,5.54,5.54,0,0,1-2-1.36,5.31,5.31,0,0,1-1.22-2,8.05,8.05,0,0,1-.41-2.67c0-.51,0-1.12,0-1.82V42.76h1.93V54a4.91,4.91,0,0,0,1.23,3.62,4.5,4.5,0,0,0,3.33,1.23,4.55,4.55,0,0,0,3.41-1.17A5.12,5.12,0,0,0,76.61,54V42.79Z"/><path class="a" d="M96.77,55.09a4.64,4.64,0,0,1-.6,2.35,4.79,4.79,0,0,1-1.75,1.71,7.82,7.82,0,0,1-2.24.85,12.911,12.911,0,0,1-2.78.27c-.77,0-1.57,0-2.39-.05l-1.36-.06V42.79c0-.06.54,0,1.29-.07s1.49,0,2.2,0a13.909,13.909,0,0,1,2.22.17,7.24,7.24,0,0,1,1.72.49,4,4,0,0,1,1.68,1.35,3.76,3.76,0,0,1,.61,2.16,4.2,4.2,0,0,1-2.51,3.8v.13a4.76,4.76,0,0,1,1.56.42,4.08,4.08,0,0,1,2.1,2.23,4.78,4.78,0,0,1,.25,1.62Zm-2,.06a3.19,3.19,0,0,0-.2-1.15,3.53,3.53,0,0,0-.63-1,2.77,2.77,0,0,0-1.1-.72A4.15,4.15,0,0,0,91.32,52H89.73l-.19-1.56a6.16,6.16,0,0,0,1.53-.23,3.49,3.49,0,0,0,1.18-.61,3,3,0,0,0,.81-1,2.87,2.87,0,0,0,.31-1.36,2.58,2.58,0,0,0-.37-1.4,2.48,2.48,0,0,0-1-.91,4.33,4.33,0,0,0-1.26-.42,9,9,0,0,0-1.6-.13H87.55V58.41h1.38a19.19,19.19,0,0,0,2.49-.16,4.83,4.83,0,0,0,2-.65,2.7,2.7,0,0,0,1-1.06,3.09,3.09,0,0,0,.36-1.39Z"/><path class="a" d="M0,60.56V17.84H6.12v36.6H18.24v6.12Z"/><path class="a" d="M19.19,60.42V17.7h6.12V36h7.56V17.7H39V60.42H32.87v-19H25.31v19Z"/></g></svg>