<svg xmlns="http://www.w3.org/2000/svg" width="57.142" height="68.096" viewBox="0 0 57.142 68.096"><defs><style>.a{fill:#fff;}</style></defs><g transform="translate(8.586 14.13)"><g transform="translate(0)"><path class="a" d="M105.739,106.244V118.8l18.554-6.315,1.431-.487,1.431.487,18.554,6.315V106.244Z" transform="translate(-105.739 -106.244)"/></g></g><g transform="translate(0 61.115)"><g transform="translate(0)"><path class="a" d="M93.465,461.194a3.468,3.468,0,0,1-4.57,0,7.862,7.862,0,0,0-9.717,0,3.468,3.468,0,0,1-4.569,0,7.861,7.861,0,0,0-9.716,0,3.467,3.467,0,0,1-4.568,0,7.861,7.861,0,0,0-9.716,0,3.467,3.467,0,0,1-4.568,0,7.6,7.6,0,0,0-4.858-1.681v4.441a3.3,3.3,0,0,1,2.284.859,7.861,7.861,0,0,0,9.716,0,3.467,3.467,0,0,1,4.569,0,7.861,7.861,0,0,0,9.716,0,3.467,3.467,0,0,1,4.569,0,7.861,7.861,0,0,0,9.716,0,3.468,3.468,0,0,1,4.569,0,7.863,7.863,0,0,0,9.717,0,3.3,3.3,0,0,1,2.285-.859v-4.441A7.6,7.6,0,0,0,93.465,461.194Z" transform="translate(-41.182 -459.513)"/></g></g><g transform="translate(15.84)"><path class="a" d="M175.229,3.4V0h-4.441V3.4h-10.51V9.689h25.61V3.4Z" transform="translate(-160.278)"/></g><g transform="translate(0.898 25.33)"><g transform="translate(0)"><path class="a" d="M47.934,199.111l9.4,23.324a12.122,12.122,0,0,1,3.989-.642,11.79,11.79,0,0,1,7.142,2.3,11.851,11.851,0,0,1,4.923-2.107V190.448Z" transform="translate(-47.934 -190.448)"/></g></g><g transform="translate(30.791 25.329)"><g transform="translate(0)"><path class="a" d="M272.7,190.447v31.536a11.852,11.852,0,0,1,4.921,2.107,11.79,11.79,0,0,1,7.142-2.3,12.146,12.146,0,0,1,3.9.613l9.5-23.292Z" transform="translate(-272.695 -190.447)"/></g></g></svg>