<svg xmlns="http://www.w3.org/2000/svg" width="65.706" height="68.999" viewBox="0 0 65.706 68.999"><defs><style>.a{fill:#fff;}</style></defs><g transform="translate(-14.605 -0.001)"><path class="a" d="M75.013,31.774a28.369,28.369,0,0,0-5.521,8.291,4.221,4.221,0,0,1-7.826-.01c-1.639-4.019-4.125-6.758-6.536-9.4-.6-.666-1.206-1.333-1.8-2.02-.032.011-.053.021-.085.032a4.988,4.988,0,0,0-3.067,6.345c.74,1.734,5.933,1.407,5.489,5.14-.37,3.056,3.627,3.86,5.044,3.712,1.417-.169,3.6,2.327,2.5,3.427s-3.152,1.142-2.834,3.976c.085.825,2.581.719,2.581,1.967s-1.29,2.686-.3,4.135a3.367,3.367,0,0,0,.666.751A26.779,26.779,0,0,1,21.458,25.989,15.664,15.664,0,0,0,25.223,36c3.934,3.924,9.634,2.686,10.364,5.975s-3.913,3.289-3.606,5.8,6.377,3.183,5.023,5.5c-1.787,3.077,1.206,3.3.338,7.1-.465,2.073,2.528,2.475,3.638.9.846-1.206.677-2.686,2.379-4.495,2.083-2.221,6.917-2.58,6.377-6.25-.92-6.091-6.842-7.043-9.423-8.471-2.929-1.607-2.21-5.468-2.845-7.308-.888-2.612-3.9.73-5.51-.793-2.644-2.5.476-6.028,2.7-5.954,4.685.148,6.123,4.706,7.847,4.547,1.682-.148,2.771-2.5,3.067-3.744.624-2.718-1.058-1.5-1.734-2.919-.91-1.893,3.194-3.7,4.78-5.1a2.131,2.131,0,0,0,.518-.6c.476-.931-.148-1.639-1.206-2.284-2.115-1.28-5.975-2.295-6.155-4.294-.106-1.227,2.242-1.819,4.918-1.925.444.021.878.063,1.322.106a17.872,17.872,0,0,1,1.068-3.68,29.734,29.734,0,0,0-3.9-.254A30.574,30.574,0,1,0,75.753,38.426,29.965,29.965,0,0,0,75.013,31.774ZM64.151.069C55.52.884,49.609,9.247,51.115,17.785c1.53,8.672,9.526,11.342,13.494,21.077a1.051,1.051,0,0,0,1.95,0c4.4-10.8,13.752-12.9,13.752-24.139A14.729,14.729,0,0,0,64.151.069ZM65.585,22.5a7.777,7.777,0,1,1,7.777-7.777A7.777,7.777,0,0,1,65.585,22.5Z" transform="translate(0 0)"/></g></svg>