<svg xmlns="http://www.w3.org/2000/svg" width="53.481" height="68.096" viewBox="0 0 53.481 68.096"><defs><style>.a{fill:#fff;}</style></defs><g transform="translate(0)"><path class="a" d="M114.488,63.775,104.555,45.6a5.9,5.9,0,0,0,4.892-5.811V12.963A12.94,12.94,0,0,0,96.549,0h-16.9A13.1,13.1,0,0,0,66.6,13.113V39.785A5.79,5.79,0,0,0,71.5,45.6L61.711,63.775A2.941,2.941,0,0,0,62.9,67.8a2.194,2.194,0,0,0,1.334.3,2.867,2.867,0,0,0,2.52-1.49l.89-1.49h40.917l.889,1.49a2.75,2.75,0,0,0,2.52,1.49,4.308,4.308,0,0,0,1.334-.3A2.941,2.941,0,0,0,114.488,63.775ZM100.552,50.364H75.646l2.52-4.619H98.032Zm-.445-9.983a4.321,4.321,0,1,1,4.3-4.321A4.412,4.412,0,0,1,100.108,40.381ZM71.792,14.752a8.28,8.28,0,0,1,8.154-8.344H96.1a8.406,8.406,0,0,1,8.3,8.344V21.9a2.857,2.857,0,0,1-2.965,2.831H74.757A2.822,2.822,0,0,1,71.94,21.9l-.148-7.152Zm4.3,16.838a4.321,4.321,0,1,1-4.3,4.321A4.313,4.313,0,0,1,76.091,31.589ZM70.013,60.646l3.262-5.811h29.65l3.261,5.811Z" transform="translate(-61.359)"/></g></svg>