<svg xmlns="http://www.w3.org/2000/svg" width="68.096" height="62.156" viewBox="0 0 68.096 62.156"><defs><style>.a{fill:#fff;}</style></defs><path class="a" d="M67.481,40.015,34.64,21.527a1.207,1.207,0,0,0-1.185,0L.615,40.015A1.208,1.208,0,0,0,0,41.068v42.1a.363.363,0,0,0,.363.364H7.61a.363.363,0,0,0,.363-.364V47.438h52.15V83.164a.363.363,0,0,0,.363.364h7.246a.364.364,0,0,0,.364-.364v-42.1A1.207,1.207,0,0,0,67.481,40.015Z" transform="translate(0 -21.371)"/><g transform="translate(12.418 34.561)"><g transform="translate(0 16.313)"><g transform="translate(15.989)"><path class="a" d="M329.536,387.449h-8.867a1.207,1.207,0,0,0-1.207,1.207v8.867a1.207,1.207,0,0,0,1.207,1.207h8.867a1.207,1.207,0,0,0,1.208-1.207v-8.867A1.207,1.207,0,0,0,329.536,387.449Z" transform="translate(-303.473 -387.449)"/><path class="a" d="M214.483,387.449h-8.867a1.207,1.207,0,0,0-1.208,1.207v8.867a1.207,1.207,0,0,0,1.208,1.207h8.867a1.207,1.207,0,0,0,1.207-1.207v-8.867A1.207,1.207,0,0,0,214.483,387.449Z" transform="translate(-204.409 -387.449)"/></g><path class="a" d="M99.433,387.449H90.566a1.207,1.207,0,0,0-1.207,1.207v8.867a1.207,1.207,0,0,0,1.207,1.207h8.867a1.207,1.207,0,0,0,1.207-1.207v-8.867A1.207,1.207,0,0,0,99.433,387.449Z" transform="translate(-89.359 -387.449)"/></g><g transform="translate(0 0)"><g transform="translate(15.989)"><path class="a" d="M329.536,270.065h-8.867a1.207,1.207,0,0,0-1.207,1.207v8.867a1.207,1.207,0,0,0,1.207,1.207h8.867a1.207,1.207,0,0,0,1.208-1.207v-8.867A1.207,1.207,0,0,0,329.536,270.065Z" transform="translate(-303.473 -270.065)"/><path class="a" d="M214.483,270.065h-8.867a1.207,1.207,0,0,0-1.208,1.207v8.867a1.207,1.207,0,0,0,1.208,1.207h8.867a1.207,1.207,0,0,0,1.207-1.207v-8.867A1.207,1.207,0,0,0,214.483,270.065Z" transform="translate(-204.409 -270.065)"/></g><path class="a" d="M99.433,270.065H90.566a1.207,1.207,0,0,0-1.207,1.207v8.867a1.208,1.208,0,0,0,1.207,1.207h8.867a1.207,1.207,0,0,0,1.207-1.207v-8.867A1.207,1.207,0,0,0,99.433,270.065Z" transform="translate(-89.359 -270.065)"/></g></g></svg>