<svg xmlns="http://www.w3.org/2000/svg" width="25.806" height="26.501" viewBox="0 0 25.806 26.501"><defs><style>.a{fill:#3e243e;}</style></defs><g transform="translate(-4.219)"><path class="a" d="M174.52,48.827a8.013,8.013,0,0,0-7.094-7.635c-.078-.009-.164-.023-.254-.038a3.687,3.687,0,0,0-.6-.066,1.01,1.01,0,0,0-1.081.906,1.047,1.047,0,0,0,.157.822,1.553,1.553,0,0,0,1.117.48c.111.015.215.03.3.049,3.543.792,4.736,2.036,5.319,5.549.014.086.021.192.027.3.025.42.078,1.294,1.018,1.294h0a1.668,1.668,0,0,0,.25-.02c.875-.133.847-.931.834-1.315a1.947,1.947,0,0,1,0-.278A.374.374,0,0,0,174.52,48.827Z" transform="translate(-147.979 -37.706)"/><path class="a" d="M161.726,2.114c.1.008.2.015.287.027,5.818.895,8.493,3.651,9.235,9.514a3.429,3.429,0,0,1,.017.35c.007.458.023,1.411,1.046,1.431h.032a1,1,0,0,0,.759-.288,1.6,1.6,0,0,0,.278-1.226c0-.1-.009-.19-.007-.27A11.857,11.857,0,0,0,162.264.017a.415.415,0,0,0-.073,0,.5.5,0,0,1-.071,0c-.06,0-.133-.005-.211-.01-.094-.006-.2-.014-.309-.014a1.053,1.053,0,0,0-1.159,1.082C160.388,2.017,161.292,2.082,161.726,2.114Z" transform="translate(-143.363)"/><path class="a" d="M27.6,33.94c-.124-.094-.252-.192-.371-.289-.635-.511-1.311-.982-1.965-1.438l-.406-.284a4.056,4.056,0,0,0-2.3-.874,2.982,2.982,0,0,0-2.482,1.573,1.319,1.319,0,0,1-1.132.688,2.248,2.248,0,0,1-.912-.229A10.975,10.975,0,0,1,12.3,27.5c-.533-1.2-.36-1.982.578-2.62a2.652,2.652,0,0,0,1.455-2.325c-.08-1.465-3.311-5.872-4.673-6.372a2.653,2.653,0,0,0-1.8,0,5.221,5.221,0,0,0-3.249,2.672,4.967,4.967,0,0,0,.071,4.009,32.346,32.346,0,0,0,7.1,10.806,34.406,34.406,0,0,0,10.768,7.15,5.963,5.963,0,0,0,1.065.316c.1.022.184.041.246.058a.413.413,0,0,0,.1.015h.033a6.109,6.109,0,0,0,5.073-3.861C29.7,35.546,28.54,34.656,27.6,33.94Z" transform="translate(0 -14.706)"/><path class="a" d="M171.46,83.556a1.225,1.225,0,0,0-1.288.742,1,1,0,0,0,.041.864,1.293,1.293,0,0,0,.976.516,2.306,2.306,0,0,1,2.14,2.3,1.09,1.09,0,0,0,1.038,1.077h0a1.022,1.022,0,0,0,.123-.007c.659-.078.979-.563.95-1.439a4.111,4.111,0,0,0-1.283-2.781A3.827,3.827,0,0,0,171.46,83.556Z" transform="translate(-152.223 -76.679)"/></g></svg>