<svg xmlns="http://www.w3.org/2000/svg" width="24" height="24" viewBox="0 0 24 24"><defs><style>.a{fill:#fff;}.b{fill:#3e243e;}</style></defs><rect class="a" width="24" height="24"/><g transform="translate(4.853 3.321)"><path class="b" d="M101.17,213.657a.757.757,0,0,0-.06-.266.287.287,0,0,0-.258-.176.449.449,0,0,0-.352.132.234.234,0,0,0-.059.088l0,2.842v.07l.028.037a.564.564,0,0,0,.3.185.291.291,0,0,0,.384-.23.69.69,0,0,0,.016-.143C101.172,215.348,101.174,214.5,101.17,213.657Zm0,0a.757.757,0,0,0-.06-.266.287.287,0,0,0-.258-.176.449.449,0,0,0-.352.132.234.234,0,0,0-.059.088l0,2.842v.07l.028.037a.564.564,0,0,0,.3.185.291.291,0,0,0,.384-.23.69.69,0,0,0,.016-.143C101.172,215.348,101.174,214.5,101.17,213.657Zm3.182-4.286q-5.045-.108-10.093,0a2.147,2.147,0,0,0-2.1,2.147v5.254a2.147,2.147,0,0,0,2.1,2.147q5.046.108,10.093,0a2.147,2.147,0,0,0,2.1-2.147v-5.254A2.147,2.147,0,0,0,104.352,209.371Zm-9.1,7.879h-.97v-5.484h-1v-.917h2.981v.915H95.247Zm3.472-2.276v2.277H97.86v-.52l-.065.07a1.576,1.576,0,0,1-.662.475.8.8,0,0,1-.4.036.5.5,0,0,1-.389-.31,1.2,1.2,0,0,1-.089-.5c0-.627,0-3.943,0-3.976h.857c0,.029,0,2.41.005,3.571a.949.949,0,0,0,.013.19.209.209,0,0,0,.3.168.936.936,0,0,0,.415-.325.15.15,0,0,0,.016-.087v-3.522l.859,0S98.719,214.184,98.719,214.973Zm3.268,1.822a.7.7,0,0,1-.731.518.97.97,0,0,1-.733-.334l-.083-.088v.359h-.861v-6.4h.861v2.107a.865.865,0,0,1,.093-.147.988.988,0,0,1,.5-.315.746.746,0,0,1,.892.406,1.663,1.663,0,0,1,.137.719q0,1.342,0,2.684A1.57,1.57,0,0,1,101.986,216.795Zm3.178-.18a1.052,1.052,0,0,1-.909.745,1.438,1.438,0,0,1-.82-.084,1.139,1.139,0,0,1-.651-.829,2.5,2.5,0,0,1-.063-.535c-.007-.7,0-1.4,0-2.1a1.416,1.416,0,0,1,.339-.985,1.252,1.252,0,0,1,1.072-.413,1.5,1.5,0,0,1,.374.068,1.042,1.042,0,0,1,.71.843,2.54,2.54,0,0,1,.047.477c.007.374,0,1.2,0,1.2h-1.648v1.181a.384.384,0,1,0,.767,0v-.607h.885A4.29,4.29,0,0,1,105.165,216.615Zm-.786-3.013a.384.384,0,1,0-.767,0v.663h.767Zm-3.269-.211a.287.287,0,0,0-.258-.176.449.449,0,0,0-.352.132.234.234,0,0,0-.059.088l0,2.842v.07l.028.037a.564.564,0,0,0,.3.185.291.291,0,0,0,.384-.23.69.69,0,0,0,.016-.143c0-.846,0-1.692,0-2.538A.756.756,0,0,0,101.11,213.39Z" transform="translate(-92.159 -201.615)"/><path class="b" d="M259.218,94.99v4.752h-.881v-.511c-.1.1-.18.185-.272.266a1.189,1.189,0,0,1-.56.291.559.559,0,0,1-.715-.381,1.255,1.255,0,0,1-.057-.355V94.99h.874v3.624a.819.819,0,0,0,.012.144.2.2,0,0,0,.281.17.939.939,0,0,0,.423-.325.157.157,0,0,0,.013-.089V94.99Z" transform="translate(-248.068 -93.309)"/><path class="b" d="M136.908,65.577c-.191-.806-.592-2.507-.592-2.507h-1s.77,2.553,1.114,3.692a.454.454,0,0,1,.018.129V69.5h.924V66.891a.454.454,0,0,1,.018-.129c.344-1.139,1.114-3.692,1.114-3.692h-1s-.4,1.7-.592,2.507Z" transform="translate(-133.041 -63.07)"/><path class="b" d="M196.069,92.731h0a1.261,1.261,0,0,0-1.261,1.261V96.46a1.261,1.261,0,0,0,1.261,1.261h0a1.261,1.261,0,0,0,1.261-1.261V93.992A1.261,1.261,0,0,0,196.069,92.731Zm.364,3.778a.364.364,0,0,1-.728,0V93.942a.364.364,0,1,1,.728,0Z" transform="translate(-189.402 -91.169)"/></g></svg>